<?xml version="1.0" encoding="iso-8859-1"?>
<!-- Uploaded to: SVG Repo, www.svgrepo.com, Generator: SVG Repo Mixer Tools -->
<svg height="800px" width="800px" version="1.1" id="Layer_1" xmlns="http://www.w3.org/2000/svg" xmlns:xlink="http://www.w3.org/1999/xlink" 
	 viewBox="0 0 512 512" xml:space="preserve">
<rect x="2" y="2" width="508" height="510" rx="30" fill="#FFFFFF"/>
<g>
	<g>
		<path fill="#000000" d="M495.304,0H16.696C7.475,0,0,7.475,0,16.696v478.609C0,504.525,7.475,512,16.696,512h478.609
			c9.22,0,16.696-7.475,16.696-16.696V16.696C512,7.475,504.525,0,495.304,0z M478.609,478.609H33.391V33.391h445.217V478.609z"/>
	</g>
</g>
<g>
	<g>
		<path fill="#000000" d="M183.652,411.826H139.13c-3.069,0-5.565-2.497-5.565-5.565v-116.87c0-4.429-1.759-8.675-4.891-11.805L107.089,256
			l21.586-21.586c3.131-3.13,4.89-7.376,4.89-11.805v-116.87c0-3.069,2.497-5.565,5.565-5.565h44.522
			c9.22,0,16.696-7.475,16.696-16.696s-7.475-16.696-16.696-16.696H139.13c-21.481,0-38.956,17.476-38.956,38.957v109.954
			l-28.501,28.501c-6.52,6.519-6.52,17.091,0,23.611l28.501,28.502v109.954c0,21.481,17.476,38.957,38.956,38.957h44.522
			c9.22,0,16.696-7.475,16.696-16.696S192.873,411.826,183.652,411.826z"/>
	</g>
</g>
<g>
	<g>
		<path fill="#000000" d="M440.327,244.195l-28.501-28.502V105.739c0-21.481-17.476-38.957-38.957-38.957h-44.522
			c-9.22,0-16.696,7.475-16.696,16.696s7.475,16.696,16.696,16.696h44.522c3.069,0,5.565,2.497,5.565,5.565v116.87
			c0,4.429,1.759,8.675,4.891,11.805L404.911,256l-21.586,21.586c-3.131,3.13-4.89,7.376-4.89,11.805v116.87
			c0,3.069-2.497,5.565-5.565,5.565h-44.522c-9.22,0-16.696,7.475-16.696,16.696s7.475,16.696,16.696,16.696h44.522
			c21.481,0,38.957-17.476,38.957-38.957V296.307l28.501-28.501C446.847,261.287,446.847,250.715,440.327,244.195z"/>
	</g>
</g>

</svg>